<?xml version="1.0" encoding="iso-8859-1"?>
<!-- Generator: Adobe Illustrator 19.0.0, SVG Export Plug-In . SVG Version: 6.00 Build 0)  -->
<svg version="1.1" id="Layer_1" xmlns="http://www.w3.org/2000/svg" xmlns:xlink="http://www.w3.org/1999/xlink" x="0px" y="0px"
	 viewBox="0 0 502.001 502.001" style="enable-background:new 0 0 502.001 502.001;" xml:space="preserve">
<g>
	<path style="fill:#FF1D25;" d="M132.107,171.665l174.373-49.448c50.183-11.633,103.33,2.553,139.756,38.979
		C474.511,189.471,492,228.533,492,271.68v36.552c0,41.705-33.808,75.513-75.513,75.513H304.739c-6.51,0-13.017-0.151-19.514-0.452
		c-39.258-1.819-77.516-12.98-112.025-31.784l-41.094-22.391L132.107,171.665L132.107,171.665z"/>
	<rect x="10" y="171.665" style="fill:#53A29D;" width="122.107" height="157.453"/>
	<g>
		<path d="M453.308,154.125c-18.99-18.99-42.896-32.85-69.134-40.081c-25.917-7.144-53.564-7.686-79.952-1.568
			c-0.158,0.037-0.314,0.077-0.471,0.121l-173.035,49.068H10c-5.522,0-10,4.477-10,10v157.453c0,5.523,4.478,10,10,10h119.558
			l38.858,21.173c36.22,19.735,76.452,31.144,116.347,32.992c6.628,0.307,13.349,0.462,19.977,0.462h111.747
			c47.152,0,85.514-38.361,85.514-85.514V271.68C502,227.273,484.707,185.524,453.308,154.125z M20,181.665h102.106v137.453H20
			V181.665z M482,308.231c0,36.125-29.39,65.514-65.514,65.514h-30.375c-2.335-46.052-25.669-88.905-63.448-115.789
			c-4.498-3.203-10.743-2.15-13.945,2.35c-3.202,4.5-2.15,10.743,2.35,13.945c32.515,23.138,52.711,59.905,55.025,99.494h-61.354
			c-6.321,0-12.73-0.148-19.051-0.441c-36.886-1.709-74.129-12.282-107.703-30.576l-35.879-19.55V179.223l166.862-47.318
			c47.064-10.826,96.932,3.095,130.196,36.361C466.788,195.889,482,232.615,482,271.68V308.231z"/>
		<path d="M269.33,233.914c-11.208-2.601-22.781-3.919-34.396-3.919c-5.522,0-10,4.477-10,10s4.478,10,10,10
			c10.096,0,20.147,1.145,29.877,3.402c0.76,0.176,1.52,0.261,2.269,0.261c4.547,0,8.66-3.123,9.732-7.742
			C278.06,240.535,274.711,235.162,269.33,233.914z"/>
	</g>
</g>
<g>
</g>
<g>
</g>
<g>
</g>
<g>
</g>
<g>
</g>
<g>
</g>
<g>
</g>
<g>
</g>
<g>
</g>
<g>
</g>
<g>
</g>
<g>
</g>
<g>
</g>
<g>
</g>
<g>
</g>
</svg>
