<?xml version="1.0" encoding="iso-8859-1"?>
<!-- Generator: Adobe Illustrator 19.0.0, SVG Export Plug-In . SVG Version: 6.00 Build 0)  -->
<svg xmlns="http://www.w3.org/2000/svg" xmlns:xlink="http://www.w3.org/1999/xlink" version="1.1" id="Layer_1" x="0px" y="0px" viewBox="0 0 512 512" style="enable-background:new 0 0 512 512;" xml:space="preserve" width="512px" height="512px">
<g>
	<g>
		<g>
			<path d="M8.533,153.6h34.133c4.719,0,8.533-3.823,8.533-8.533s-3.814-8.533-8.533-8.533H8.533c-4.719,0-8.533,3.823-8.533,8.533     S3.814,153.6,8.533,153.6z" fill="#FFFFFF"/>
			<path d="M76.8,375.467H8.533C3.814,375.467,0,379.29,0,384s3.814,8.533,8.533,8.533H76.8c4.719,0,8.533-3.823,8.533-8.533     S81.519,375.467,76.8,375.467z" fill="#FFFFFF"/>
			<path d="M503.296,177.527c-10.078-50.406-42.897-109.261-102.229-109.261H290.133c-4.719,0-8.533,3.823-8.533,8.533     s3.814,8.533,8.533,8.533h110.933c48.998,0,76.681,51.465,85.453,95.275c0.077,0.503,8.414,50.978,8.414,92.459     c0,41.438-8.337,91.955-8.363,92.194c-8.823,44.075-36.506,95.539-85.504,95.539H358.4v-25.6c0-4.71-3.814-8.533-8.533-8.533     s-8.533,3.823-8.533,8.533v25.6h-42.667v-42.667c0-4.71-3.814-8.533-8.533-8.533s-8.533,3.823-8.533,8.533V460.8h-42.667v-59.733     c0-4.71-3.814-8.533-8.533-8.533s-8.533,3.823-8.533,8.533V460.8h-25.6c-46.66,0-76.8-30.148-76.8-76.8v-17.067     c0-4.71-3.814-8.533-8.533-8.533s-8.533,3.823-8.533,8.533V384c0,56.149,37.726,93.867,93.867,93.867h204.8     c59.332,0,92.151-58.854,102.281-109.525c0.35-2.125,8.653-52.395,8.653-95.275S503.697,179.917,503.296,177.527z" fill="#FFFFFF"/>
			<path d="M119.467,145.067v-25.6c0-37.641,30.626-68.267,68.267-68.267C225.374,51.2,256,81.826,256,119.467V256     c0,37.641-30.626,68.267-68.267,68.267c-37.641,0-68.267-30.626-68.267-68.267c0-4.71-3.814-8.533-8.533-8.533     S102.4,251.29,102.4,256c0,47.053,38.281,85.333,85.333,85.333s85.333-38.281,85.333-85.333V119.467     c0-47.053-38.281-85.333-85.333-85.333S102.4,72.414,102.4,119.467v17.067H76.8c-4.719,0-8.533,3.823-8.533,8.533v145.067     c0,9.412-7.654,17.067-17.067,17.067c-9.412,0-17.067-7.654-17.067-17.067V179.2c0-4.71-3.814-8.533-8.533-8.533     s-8.533,3.823-8.533,8.533v110.933c0,18.825,15.309,34.133,34.133,34.133s34.133-15.309,34.133-34.133V153.6h25.6     C115.652,153.6,119.467,149.777,119.467,145.067z" fill="#FFFFFF"/>
			<path d="M401.067,366.933c0-4.71-3.814-8.533-8.533-8.533c-37.641,0-68.267-30.626-68.267-68.267c0-4.71-3.814-8.533-8.533-8.533     s-8.533,3.823-8.533,8.533c0,47.053,38.281,85.333,85.333,85.333C397.252,375.467,401.067,371.644,401.067,366.933z" fill="#FFFFFF"/>
		</g>
	</g>
</g>
<g>
</g>
<g>
</g>
<g>
</g>
<g>
</g>
<g>
</g>
<g>
</g>
<g>
</g>
<g>
</g>
<g>
</g>
<g>
</g>
<g>
</g>
<g>
</g>
<g>
</g>
<g>
</g>
<g>
</g>
</svg>
